<svg xmlns="http://www.w3.org/2000/svg" viewBox="0 0 1024 1024" width="1024" height="1024">
  <defs>
    <radialGradient id="bgR2" cx="50%" cy="55%" r="80%">
      <stop offset="0%" stop-color="#1a1208"/>
      <stop offset="100%" stop-color="#050302"/>
    </radialGradient>
    <pattern id="scanR2" width="8" height="8" patternUnits="userSpaceOnUse">
      <rect width="8" height="4" fill="rgba(0,0,0,0)"/>
      <rect y="4" width="8" height="4" fill="rgba(0,0,0,0.28)"/>
    </pattern>
    <filter id="glowR2" x="-20%" y="-20%" width="140%" height="140%">
      <feGaussianBlur stdDeviation="7" result="blur"/>
      <feMerge>
        <feMergeNode in="blur"/>
        <feMergeNode in="SourceGraphic"/>
      </feMerge>
    </filter>
  </defs>

  <!-- Scale to 80% centred — leaves ~102px transparent padding each side -->
  <g transform="translate(512,512) scale(0.80) translate(-512,-512)">
    <rect width="1024" height="1024" rx="232" fill="url(#bgR2)"/>

    <!-- Pixel-stepped chevron in amber phosphor -->
    <g fill="#ffb000" filter="url(#glowR2)">
      <!-- Left side ascent -->
      <rect x="192" y="616" width="64" height="64"/>
      <rect x="256" y="552" width="64" height="64"/>
      <rect x="320" y="488" width="64" height="64"/>
      <rect x="384" y="424" width="64" height="64"/>
      <rect x="448" y="360" width="64" height="64"/>
      <!-- Apex -->
      <rect x="480" y="296" width="64" height="64"/>
      <!-- Right side descent -->
      <rect x="512" y="360" width="64" height="64"/>
      <rect x="576" y="424" width="64" height="64"/>
      <rect x="640" y="488" width="64" height="64"/>
      <rect x="704" y="552" width="64" height="64"/>
      <rect x="768" y="616" width="64" height="64"/>
    </g>

    <!-- Pixelated baseline dots -->
    <g fill="#ffb000" opacity="0.45">
      <rect x="288" y="728" width="32" height="32"/>
      <rect x="496" y="728" width="32" height="32"/>
      <rect x="704" y="728" width="32" height="32"/>
    </g>

    <!-- Scanlines -->
    <rect width="1024" height="1024" rx="232" fill="url(#scanR2)"/>

    <rect x="1.5" y="1.5" width="1021" height="1021" rx="230.5"
          fill="none" stroke="rgba(255,176,0,0.18)" stroke-width="1.5"/>
  </g>
</svg>
